<svg width="277" height="97" viewBox="0 0 277 97" fill="none" xmlns="http://www.w3.org/2000/svg">
<path d="M0.272728 95V1.90909H11.5455V48.0909H12.6364L54.4545 1.90909H69.1818L30.0909 43.9091L69.1818 95H55.5455L23.1818 51.7273L11.5455 64.8182V95H0.272728ZM100.682 95L75.2273 1.90909H86.6818L106.136 77.7273H107.045L126.864 1.90909H139.591L159.409 77.7273H160.318L179.773 1.90909H191.227L165.773 95H154.136L133.591 20.8182H132.864L112.318 95H100.682ZM264.534 31C263.534 27.9394 262.216 25.197 260.58 22.7727C258.973 20.3182 257.049 18.2273 254.807 16.5C252.595 14.7727 250.08 13.4545 247.261 12.5454C244.443 11.6364 241.352 11.1818 237.989 11.1818C232.473 11.1818 227.458 12.6061 222.943 15.4545C218.428 18.303 214.837 22.5 212.17 28.0455C209.504 33.5909 208.17 40.3939 208.17 48.4545C208.17 56.5151 209.519 63.3182 212.216 68.8636C214.913 74.4091 218.564 78.6061 223.17 81.4545C227.777 84.303 232.958 85.7273 238.716 85.7273C244.049 85.7273 248.746 84.5909 252.807 82.3182C256.898 80.0152 260.08 76.7727 262.352 72.5909C264.655 68.3788 265.807 63.4242 265.807 57.7273L269.261 58.4545H241.261V48.4545H276.716V58.4545C276.716 66.1212 275.08 72.7879 271.807 78.4545C268.564 84.1212 264.08 88.5152 258.352 91.6364C252.655 94.7273 246.11 96.2727 238.716 96.2727C230.473 96.2727 223.231 94.3333 216.989 90.4545C210.777 86.5758 205.928 81.0606 202.443 73.9091C198.989 66.7576 197.261 58.2727 197.261 48.4545C197.261 41.0909 198.246 34.4697 200.216 28.5909C202.216 22.6818 205.034 17.6515 208.67 13.5C212.307 9.34849 216.61 6.16667 221.58 3.95454C226.549 1.74242 232.019 0.63636 237.989 0.63636C242.898 0.63636 247.473 1.37878 251.716 2.86363C255.989 4.31818 259.792 6.39393 263.125 9.0909C266.489 11.7576 269.292 14.9545 271.534 18.6818C273.777 22.3788 275.322 26.4848 276.17 31H264.534Z" fill="white"/>
</svg>
